<mxfile host="app.diagrams.net" modified="2023-06-29T03:48:41.055Z" agent="Mozilla/5.0 (Windows NT 10.0; Win64; x64) AppleWebKit/537.36 (KHTML, like Gecko) Chrome/114.0.0.0 Safari/537.36" etag="Ecnm0JWdfc6FRTbYLtaA" version="21.5.1" type="github">
  <diagram name="Trang-1" id="W93PMyCtexK4ViFtBHvc">
    <mxGraphModel dx="993" dy="518" grid="0" gridSize="10" guides="1" tooltips="1" connect="1" arrows="1" fold="1" page="1" pageScale="1" pageWidth="3000" pageHeight="5000" math="0" shadow="0">
      <root>
        <mxCell id="0" />
        <mxCell id="1" parent="0" />
        <mxCell id="zTTCxPMw7c6G7J5LnkLq-29" value="" style="rounded=1;arcSize=0;dashed=1;strokeColor=#000000;fillColor=none;gradientColor=none;dashPattern=8 4;strokeWidth=2;" vertex="1" parent="1">
          <mxGeometry x="745" y="663" width="391" height="172" as="geometry" />
        </mxCell>
        <mxCell id="zTTCxPMw7c6G7J5LnkLq-14" value="" style="edgeStyle=orthogonalEdgeStyle;rounded=0;orthogonalLoop=1;jettySize=auto;html=1;" edge="1" parent="1" source="zTTCxPMw7c6G7J5LnkLq-8" target="zTTCxPMw7c6G7J5LnkLq-13">
          <mxGeometry relative="1" as="geometry" />
        </mxCell>
        <mxCell id="zTTCxPMw7c6G7J5LnkLq-8" value="&lt;font style=&quot;font-size: 14px;&quot;&gt;SynCAN Dataset&lt;/font&gt;" style="rounded=0;whiteSpace=wrap;html=1;fillColor=#fff2cc;strokeColor=#d6b656;" vertex="1" parent="1">
          <mxGeometry x="738" y="490" width="116" height="32" as="geometry" />
        </mxCell>
        <mxCell id="zTTCxPMw7c6G7J5LnkLq-9" value="&lt;font style=&quot;font-size: 14px;&quot;&gt;Traditional machine learning models&lt;/font&gt;" style="rounded=0;whiteSpace=wrap;html=1;fillColor=#e1d5e7;strokeColor=#9673a6;" vertex="1" parent="1">
          <mxGeometry x="544" y="438" width="139" height="43" as="geometry" />
        </mxCell>
        <mxCell id="zTTCxPMw7c6G7J5LnkLq-10" value="&lt;font style=&quot;font-size: 14px;&quot;&gt;Automated machine learning tools&lt;/font&gt;" style="rounded=0;whiteSpace=wrap;html=1;fillColor=#f9f7ed;strokeColor=#36393d;" vertex="1" parent="1">
          <mxGeometry x="544" y="544" width="139" height="43" as="geometry" />
        </mxCell>
        <mxCell id="zTTCxPMw7c6G7J5LnkLq-11" value="" style="endArrow=classic;html=1;rounded=0;exitX=1;exitY=0.5;exitDx=0;exitDy=0;entryX=0;entryY=0.5;entryDx=0;entryDy=0;" edge="1" parent="1" source="zTTCxPMw7c6G7J5LnkLq-10" target="zTTCxPMw7c6G7J5LnkLq-8">
          <mxGeometry width="50" height="50" relative="1" as="geometry">
            <mxPoint x="849" y="582" as="sourcePoint" />
            <mxPoint x="899" y="532" as="targetPoint" />
          </mxGeometry>
        </mxCell>
        <mxCell id="zTTCxPMw7c6G7J5LnkLq-12" value="" style="endArrow=classic;html=1;rounded=0;exitX=1;exitY=0.5;exitDx=0;exitDy=0;entryX=0;entryY=0.5;entryDx=0;entryDy=0;" edge="1" parent="1" source="zTTCxPMw7c6G7J5LnkLq-9" target="zTTCxPMw7c6G7J5LnkLq-8">
          <mxGeometry width="50" height="50" relative="1" as="geometry">
            <mxPoint x="849" y="582" as="sourcePoint" />
            <mxPoint x="737" y="506" as="targetPoint" />
          </mxGeometry>
        </mxCell>
        <mxCell id="zTTCxPMw7c6G7J5LnkLq-13" value="&lt;font style=&quot;font-size: 14px;&quot;&gt;Imbalanced&lt;/font&gt;" style="rounded=0;whiteSpace=wrap;html=1;fillColor=#cce5ff;strokeColor=#36393d;" vertex="1" parent="1">
          <mxGeometry x="898" y="493.5" width="89" height="25" as="geometry" />
        </mxCell>
        <mxCell id="zTTCxPMw7c6G7J5LnkLq-18" value="" style="edgeStyle=orthogonalEdgeStyle;rounded=0;orthogonalLoop=1;jettySize=auto;html=1;" edge="1" parent="1" source="zTTCxPMw7c6G7J5LnkLq-15" target="zTTCxPMw7c6G7J5LnkLq-17">
          <mxGeometry relative="1" as="geometry" />
        </mxCell>
        <mxCell id="zTTCxPMw7c6G7J5LnkLq-15" value="&lt;font style=&quot;font-size: 14px;&quot;&gt;One-Class Classification&lt;/font&gt;" style="rounded=0;whiteSpace=wrap;html=1;fillColor=#cdeb8b;strokeColor=#36393d;" vertex="1" parent="1">
          <mxGeometry x="893.75" y="585" width="97.5" height="43" as="geometry" />
        </mxCell>
        <mxCell id="zTTCxPMw7c6G7J5LnkLq-17" value="&lt;font style=&quot;font-size: 14px;&quot;&gt;Disclover more Datasets&lt;/font&gt;" style="rounded=0;whiteSpace=wrap;html=1;fillColor=#ffcccc;strokeColor=#36393d;" vertex="1" parent="1">
          <mxGeometry x="890" y="683" width="105" height="41" as="geometry" />
        </mxCell>
        <mxCell id="zTTCxPMw7c6G7J5LnkLq-19" value="Survival" style="rounded=0;whiteSpace=wrap;html=1;fillColor=#eeeeee;strokeColor=#36393d;" vertex="1" parent="1">
          <mxGeometry x="829" y="785" width="53" height="32" as="geometry" />
        </mxCell>
        <mxCell id="zTTCxPMw7c6G7J5LnkLq-20" value="ROAD" style="rounded=0;whiteSpace=wrap;html=1;fillColor=#eeeeee;strokeColor=#36393d;" vertex="1" parent="1">
          <mxGeometry x="1077" y="788" width="45" height="27" as="geometry" />
        </mxCell>
        <mxCell id="zTTCxPMw7c6G7J5LnkLq-21" value="Car Hacking" style="rounded=0;whiteSpace=wrap;html=1;fillColor=#eeeeee;strokeColor=#36393d;" vertex="1" parent="1">
          <mxGeometry x="905.5" y="788" width="74" height="26" as="geometry" />
        </mxCell>
        <mxCell id="zTTCxPMw7c6G7J5LnkLq-22" value="Auto" style="rounded=0;whiteSpace=wrap;html=1;fillColor=#eeeeee;strokeColor=#36393d;" vertex="1" parent="1">
          <mxGeometry x="757" y="786" width="49" height="31" as="geometry" />
        </mxCell>
        <mxCell id="zTTCxPMw7c6G7J5LnkLq-23" value="OTIDS" style="rounded=0;whiteSpace=wrap;html=1;fillColor=#eeeeee;strokeColor=#36393d;" vertex="1" parent="1">
          <mxGeometry x="1003" y="788" width="50" height="26" as="geometry" />
        </mxCell>
        <mxCell id="zTTCxPMw7c6G7J5LnkLq-24" value="" style="endArrow=classic;html=1;rounded=0;exitX=0.5;exitY=1;exitDx=0;exitDy=0;entryX=0.5;entryY=0;entryDx=0;entryDy=0;" edge="1" parent="1" source="zTTCxPMw7c6G7J5LnkLq-17" target="zTTCxPMw7c6G7J5LnkLq-22">
          <mxGeometry width="50" height="50" relative="1" as="geometry">
            <mxPoint x="857" y="697" as="sourcePoint" />
            <mxPoint x="907" y="647" as="targetPoint" />
          </mxGeometry>
        </mxCell>
        <mxCell id="zTTCxPMw7c6G7J5LnkLq-25" value="" style="endArrow=classic;html=1;rounded=0;exitX=0.5;exitY=1;exitDx=0;exitDy=0;entryX=0.5;entryY=0;entryDx=0;entryDy=0;" edge="1" parent="1" source="zTTCxPMw7c6G7J5LnkLq-17" target="zTTCxPMw7c6G7J5LnkLq-19">
          <mxGeometry width="50" height="50" relative="1" as="geometry">
            <mxPoint x="857" y="697" as="sourcePoint" />
            <mxPoint x="907" y="647" as="targetPoint" />
          </mxGeometry>
        </mxCell>
        <mxCell id="zTTCxPMw7c6G7J5LnkLq-26" value="" style="endArrow=classic;html=1;rounded=0;entryX=0.5;entryY=0;entryDx=0;entryDy=0;exitX=0.5;exitY=1;exitDx=0;exitDy=0;" edge="1" parent="1" source="zTTCxPMw7c6G7J5LnkLq-17" target="zTTCxPMw7c6G7J5LnkLq-21">
          <mxGeometry width="50" height="50" relative="1" as="geometry">
            <mxPoint x="857" y="697" as="sourcePoint" />
            <mxPoint x="907" y="647" as="targetPoint" />
          </mxGeometry>
        </mxCell>
        <mxCell id="zTTCxPMw7c6G7J5LnkLq-27" value="" style="endArrow=classic;html=1;rounded=0;entryX=0.5;entryY=0;entryDx=0;entryDy=0;exitX=0.5;exitY=1;exitDx=0;exitDy=0;" edge="1" parent="1" source="zTTCxPMw7c6G7J5LnkLq-17" target="zTTCxPMw7c6G7J5LnkLq-23">
          <mxGeometry width="50" height="50" relative="1" as="geometry">
            <mxPoint x="942" y="727" as="sourcePoint" />
            <mxPoint x="907" y="647" as="targetPoint" />
          </mxGeometry>
        </mxCell>
        <mxCell id="zTTCxPMw7c6G7J5LnkLq-28" value="" style="endArrow=classic;html=1;rounded=0;exitX=0.5;exitY=1;exitDx=0;exitDy=0;entryX=0.5;entryY=0;entryDx=0;entryDy=0;" edge="1" parent="1" source="zTTCxPMw7c6G7J5LnkLq-17" target="zTTCxPMw7c6G7J5LnkLq-20">
          <mxGeometry width="50" height="50" relative="1" as="geometry">
            <mxPoint x="857" y="697" as="sourcePoint" />
            <mxPoint x="907" y="647" as="targetPoint" />
          </mxGeometry>
        </mxCell>
        <mxCell id="zTTCxPMw7c6G7J5LnkLq-31" value="" style="edgeStyle=orthogonalEdgeStyle;rounded=0;orthogonalLoop=1;jettySize=auto;html=1;entryX=0;entryY=0.25;entryDx=0;entryDy=0;" edge="1" parent="1" source="zTTCxPMw7c6G7J5LnkLq-30" target="zTTCxPMw7c6G7J5LnkLq-29">
          <mxGeometry relative="1" as="geometry" />
        </mxCell>
        <mxCell id="zTTCxPMw7c6G7J5LnkLq-30" value="&lt;font style=&quot;font-size: 14px;&quot;&gt;Hybrid Model&lt;/font&gt;" style="rounded=0;whiteSpace=wrap;html=1;fillColor=#ffff88;strokeColor=#36393d;" vertex="1" parent="1">
          <mxGeometry x="544" y="677" width="120" height="60" as="geometry" />
        </mxCell>
        <mxCell id="zTTCxPMw7c6G7J5LnkLq-33" value="" style="edgeStyle=orthogonalEdgeStyle;rounded=0;orthogonalLoop=1;jettySize=auto;html=1;" edge="1" parent="1" source="zTTCxPMw7c6G7J5LnkLq-32" target="zTTCxPMw7c6G7J5LnkLq-30">
          <mxGeometry relative="1" as="geometry" />
        </mxCell>
        <mxCell id="zTTCxPMw7c6G7J5LnkLq-32" value="&lt;font style=&quot;font-size: 14px;&quot;&gt;Goals: Accuracy &amp;gt; 90%&lt;/font&gt;" style="rounded=0;whiteSpace=wrap;html=1;fillColor=#d5e8d4;strokeColor=#82b366;" vertex="1" parent="1">
          <mxGeometry x="523" y="792" width="162" height="29" as="geometry" />
        </mxCell>
        <mxCell id="zTTCxPMw7c6G7J5LnkLq-34" value="" style="endArrow=classic;html=1;rounded=0;exitX=0.5;exitY=0;exitDx=0;exitDy=0;entryX=0.5;entryY=1;entryDx=0;entryDy=0;" edge="1" parent="1" source="zTTCxPMw7c6G7J5LnkLq-15" target="zTTCxPMw7c6G7J5LnkLq-13">
          <mxGeometry width="50" height="50" relative="1" as="geometry">
            <mxPoint x="857" y="701" as="sourcePoint" />
            <mxPoint x="907" y="651" as="targetPoint" />
          </mxGeometry>
        </mxCell>
      </root>
    </mxGraphModel>
  </diagram>
</mxfile>
